M48
; DRILL file KiCad 10.0.3 date 2026-05-28T21:26:26
; FORMAT={-:-/ absolute / metric / decimal}
; #@! TF.CreationDate,2026-05-28T21:26:26+02:00
; #@! TF.GenerationSoftware,Kicad,Pcbnew,10.0.3
; #@! TF.FileFunction,Plated,1,2,PTH
FMAT,2
METRIC
; #@! TA.AperFunction,Plated,PTH,ComponentDrill
T1C0.800
; #@! TA.AperFunction,Plated,PTH,ComponentDrill
T2C1.000
; #@! TA.AperFunction,Plated,PTH,ComponentDrill
T3C1.100
%
G90
G05
T1
X130.5Y-52.0
X130.5Y-62.16
T2
X102.5Y-57.225
X102.5Y-59.765
X108.37Y-46.23
X108.37Y-48.77
X108.42Y-65.5
X110.91Y-46.23
X110.91Y-48.77
X110.96Y-65.5
X113.45Y-46.23
X113.45Y-48.77
X113.5Y-65.5
X115.99Y-46.23
X115.99Y-48.77
X116.04Y-65.5
X118.53Y-46.23
X118.53Y-48.77
X118.58Y-65.5
X121.07Y-46.23
X121.07Y-48.77
X121.12Y-65.5
X123.61Y-46.23
X123.61Y-48.77
X123.66Y-65.5
X126.15Y-46.23
X126.15Y-48.77
X126.2Y-65.5
X128.69Y-46.23
X128.69Y-48.77
X131.23Y-46.23
X131.23Y-48.77
X131.42Y-65.5
X133.77Y-46.23
X133.77Y-48.77
X133.96Y-65.5
X136.31Y-46.23
X136.31Y-48.77
X136.5Y-65.5
X138.85Y-46.23
X138.85Y-48.77
X139.04Y-65.5
X141.39Y-46.23
X141.39Y-48.77
X141.58Y-65.5
X143.93Y-46.23
X143.93Y-48.77
X144.12Y-65.5
X146.47Y-46.23
X146.47Y-48.77
X146.66Y-65.5
X149.01Y-46.23
X149.01Y-48.77
X149.2Y-65.5
X151.55Y-46.23
X151.55Y-48.77
X154.09Y-46.23
X154.09Y-48.77
X156.46Y-65.5
X156.63Y-46.23
X156.63Y-48.77
X159.0Y-65.5
T3
X136.0Y-55.42
X136.0Y-57.96
X136.0Y-60.5
M30
